# xmcd
#
# Track frame offsets:
# 150
# 11027
# 22084
# 31259
# 40238
# 50463
# 60057
# 71279
# 81615
# 91262
# 100650
# 110700
#
# Disc length: 1597 seconds
#
#
# Revision: 0
# Processed by: cddbd v1.4PL0 Copyright (c) Steve Scherf et al.
# Submitted via: FreeRIP 2.00 
#
DISCID=92063b0c
DTITLE=Jim Reeves - He'll Have To Go
DYEAR=1960
DGENRE=Country
TTITLE0=He'll Have To Go
TTITLE1=I Love You More
TTITLE2=Wishful Thinking
TTITLE3=Honey, Won't You Please Come Home
TTITLE4=I'm Beginning To Forget You
TTITLE5=Billy Bayou
TTITLE6=If Heartaches Are The Fashion
TTITLE7=Partners
TTITLE8=I Love To Say I Love You (Theme Of Love)
TTITLE9=I'd Like To Be
TTITLE10=After Awhile
TTITLE11=Home
EXTD=RCA LPM 2223
EXTT0=
EXTT1=
EXTT2=
EXTT3=
EXTT4=
EXTT5=
EXTT6=
EXTT7=
EXTT8=
EXTT9=
EXTT10=
EXTT11=
PLAYORDER=
